<?xml version="1.0" encoding="utf-8"?>
<!-- Generator: Adobe Illustrator 19.0.0, SVG Export Plug-In . SVG Version: 6.00 Build 0)  -->
<svg version="1.1" id="Capa_1" xmlns="http://www.w3.org/2000/svg" xmlns:xlink="http://www.w3.org/1999/xlink" x="0px" y="0px"
	 viewBox="-752 1010 30 30" style="enable-background:new -752 1010 30 30;" xml:space="preserve">
<style type="text/css">
	.st0{fill:#4CAF50;}
</style>
<g>
	<g>
		<g>
			<path class="st0" d="M-730.1,1016.3l1.3-1.9l0,0c0.1-0.2,0.2-0.3,0.2-0.5c0-0.6-0.4-1-1-1c-0.3,0-0.6,0.2-0.8,0.5l0,0l-1.3,2
				c-1.5-0.7-3.1-1.2-4.9-1.4l0,0v-2h2c0.6,0,1-0.4,1-1s-0.4-1-1-1h-6c-0.6,0-1,0.4-1,1s0.4,1,1,1h2v2l0,0c-6.7,0.5-12,6.1-12,13
				c0,7.2,5.8,13,13,13s13-5.8,13-13C-724.7,1022.5-726.8,1018.7-730.1,1016.3z M-737.7,1037.9c-6.1,0-11-4.9-11-11s4.9-11,11-11
				s11,4.9,11,11S-731.6,1037.9-737.7,1037.9z"/>
		</g>
	</g>
	<g>
		<g>
			<path class="st0" d="M-731,1020.2c-0.4-0.4-1.1-0.4-1.5,0l-5.9,5.9c-0.4,0.4-0.4,1.1,0,1.5s1.1,0.4,1.5,0l5.9-5.9
				C-730.6,1021.3-730.6,1020.6-731,1020.2z"/>
		</g>
	</g>
</g>
</svg>
