<?xml version="1.0" encoding="utf-8"?>
<!-- Generator: Adobe Illustrator 19.0.0, SVG Export Plug-In . SVG Version: 6.00 Build 0)  -->
<svg version="1.1" id="Capa_1" xmlns="http://www.w3.org/2000/svg" xmlns:xlink="http://www.w3.org/1999/xlink" x="0px" y="0px"
	 viewBox="-543 769 448 512" style="enable-background:new -543 769 448 512;" xml:space="preserve">
<style type="text/css">
	.st0{fill:#FFFFFF;}
</style>
<path class="st0" d="M-319,1025c70.7,0,128-57.3,128-128s-57.3-128-128-128s-128,57.3-128,128S-389.7,1025-319,1025z M-229.4,1057
	h-16.7c-22.2,10.2-46.9,16-72.9,16s-50.6-5.8-72.9-16h-16.7c-74.2,0-134.4,60.2-134.4,134.4v41.6c0,26.5,21.5,48,48,48h352
	c26.5,0,48-21.5,48-48v-41.6C-95,1117.2-155.2,1057-229.4,1057z"/>
</svg>
